HIERARCHY
ROOT hip
{
  OFFSET 0 90.174 2.4664
  CHANNELS 6 Xposition Yposition Zposition Zrotation Xrotation Yrotation
  JOINT abdomen
  {
    OFFSET 0 -1.186 -1.5018
    CHANNELS 6 Xposition Yposition Zposition Zrotation Xrotation Yrotation
    JOINT abdomen2
    {
      OFFSET 0 9.964 0.2134
      CHANNELS 6 Xposition Yposition Zposition Zrotation Xrotation Yrotation
      JOINT chest
      {
        OFFSET 0 13.134 -3.2573
        CHANNELS 6 Xposition Yposition Zposition Zrotation Xrotation Yrotation
        JOINT neck
        {
          OFFSET 0 20.686 -1.6905
          CHANNELS 6 Xposition Yposition Zposition Zrotation Xrotation Yrotation
          JOINT head
          {
            OFFSET 0 7.238 -0.1237
            CHANNELS 6 Xposition Yposition Zposition Zrotation Xrotation Yrotation
            End Site
            {
              OFFSET 0 0 0
            }
          }
        }
        JOINT lCollar
        {
          OFFSET 1.7069 20.075 5.0056
          CHANNELS 6 Xposition Yposition Zposition Zrotation Xrotation Yrotation
          JOINT lShldr
          {
            OFFSET 13.6458 -0.047 -4.849
            CHANNELS 6 Xposition Yposition Zposition Zrotation Xrotation Yrotation
            JOINT lForeArm
            {
              OFFSET 28.3255 -0.9759 2.2888
              CHANNELS 6 Xposition Yposition Zposition Zrotation Xrotation Yrotation
              JOINT lHand
              {
                OFFSET 22.1583 -0.53 10.8316
                CHANNELS 6 Xposition Yposition Zposition Zrotation Xrotation Yrotation
                JOINT lThumb1
                {
                  OFFSET 0.786 0.112 2.5817
                  CHANNELS 6 Xposition Yposition Zposition Zrotation Xrotation Yrotation
                  JOINT lThumb2
                  {
                    OFFSET 0.3601 -0.878 4.2331
                    CHANNELS 6 Xposition Yposition Zposition Zrotation Xrotation Yrotation
                    JOINT lThumb2_End
                    {
                      OFFSET 1.8127 -1.216 2.2227
                      CHANNELS 6 Xposition Yposition Zposition Zrotation Xrotation Yrotation
                      End Site
                      {
                        OFFSET 0.0181 -0.0122 0.0222
                      }
                    }
                  }
                }
                JOINT lCarpal1
                {
                  OFFSET 0.9571 1.114 1.7695
                  CHANNELS 6 Xposition Yposition Zposition Zrotation Xrotation Yrotation
                  JOINT lIndex1
                  {
                    OFFSET 4.1246 0.487 4.1451
                    CHANNELS 6 Xposition Yposition Zposition Zrotation Xrotation Yrotation
                    JOINT lIndex2
                    {
                      OFFSET 3.4052 -1.454 2.7682
                      CHANNELS 6 Xposition Yposition Zposition Zrotation Xrotation Yrotation
                      JOINT lIndex2_End
                      {
                        OFFSET 1.4531 -1.795 1.2713
                        CHANNELS 6 Xposition Yposition Zposition Zrotation Xrotation Yrotation
                        End Site
                        {
                          OFFSET 0.0145 -0.0179 0.0127
                        }
                      }
                    }
                  }
                  JOINT lMid1
                  {
                    OFFSET 5.6954 0.21 2.1184
                    CHANNELS 6 Xposition Yposition Zposition Zrotation Xrotation Yrotation
                    JOINT lMid2
                    {
                      OFFSET 3.9766 -1.54 2.3863
                      CHANNELS 6 Xposition Yposition Zposition Zrotation Xrotation Yrotation
                      JOINT lMid2_End
                      {
                        OFFSET 1.4042 -1.926 1.125
                        CHANNELS 6 Xposition Yposition Zposition Zrotation Xrotation Yrotation
                        End Site
                        {
                          OFFSET 0.014 -0.0193 0.0113
                        }
                      }
                    }
                  }
                }
                JOINT lCarpal2
                {
                  OFFSET 2.0956 0.66 -0.3894
                  CHANNELS 6 Xposition Yposition Zposition Zrotation Xrotation Yrotation
                  JOINT lRing1
                  {
                    OFFSET 5.0395 -0.09 2.4971
                    CHANNELS 6 Xposition Yposition Zposition Zrotation Xrotation Yrotation
                    JOINT lRing2
                    {
                      OFFSET 3.7921 -1.552 1.4806
                      CHANNELS 6 Xposition Yposition Zposition Zrotation Xrotation Yrotation
                      JOINT lRing2_End
                      {
                        OFFSET 1.4655 -1.808 0.9609
                        CHANNELS 6 Xposition Yposition Zposition Zrotation Xrotation Yrotation
                        End Site
                        {
                          OFFSET 0.0147 -0.0181 0.0096
                        }
                      }
                    }
                  }
                  JOINT lPinky1
                  {
                    OFFSET 4.9141 -1.269 0.3591
                    CHANNELS 6 Xposition Yposition Zposition Zrotation Xrotation Yrotation
                    JOINT lPinky2
                    {
                      OFFSET 3.1477 -1.685 0.8462
                      CHANNELS 6 Xposition Yposition Zposition Zrotation Xrotation Yrotation
                      JOINT lPinky2_End
                      {
                        OFFSET 0.8055 -1.585 0.7955
                        CHANNELS 6 Xposition Yposition Zposition Zrotation Xrotation Yrotation
                        End Site
                        {
                          OFFSET 0.0081 -0.0158 0.008
                        }
                      }
                    }
                  }
                }
              }
            }
          }
        }
        JOINT rCollar
        {
          OFFSET -1.7069 20.075 5.0056
          CHANNELS 6 Xposition Yposition Zposition Zrotation Xrotation Yrotation
          JOINT rShldr
          {
            OFFSET -13.6458 -0.047 -4.849
            CHANNELS 6 Xposition Yposition Zposition Zrotation Xrotation Yrotation
            JOINT rForeArm
            {
              OFFSET -28.3255 -0.9759 2.2888
              CHANNELS 6 Xposition Yposition Zposition Zrotation Xrotation Yrotation
              JOINT rHand
              {
                OFFSET -22.1583 -0.53 10.8316
                CHANNELS 6 Xposition Yposition Zposition Zrotation Xrotation Yrotation
                JOINT rThumb1
                {
                  OFFSET -0.786 0.112 2.5817
                  CHANNELS 6 Xposition Yposition Zposition Zrotation Xrotation Yrotation
                  JOINT rThumb2
                  {
                    OFFSET -0.3601 -0.878 4.2331
                    CHANNELS 6 Xposition Yposition Zposition Zrotation Xrotation Yrotation
                    JOINT rThumb2_End
                    {
                      OFFSET -1.8127 -1.216 2.2227
                      CHANNELS 6 Xposition Yposition Zposition Zrotation Xrotation Yrotation
                      End Site
                      {
                        OFFSET -0.0181 -0.0122 0.0222
                      }
                    }
                  }
                }
                JOINT rCarpal1
                {
                  OFFSET -0.9571 1.114 1.7695
                  CHANNELS 6 Xposition Yposition Zposition Zrotation Xrotation Yrotation
                  JOINT rIndex1
                  {
                    OFFSET -4.1246 0.487 4.1451
                    CHANNELS 6 Xposition Yposition Zposition Zrotation Xrotation Yrotation
                    JOINT rIndex2
                    {
                      OFFSET -3.4052 -1.454 2.7682
                      CHANNELS 6 Xposition Yposition Zposition Zrotation Xrotation Yrotation
                      JOINT rIndex2_End
                      {
                        OFFSET -1.4531 -1.795 1.2713
                        CHANNELS 6 Xposition Yposition Zposition Zrotation Xrotation Yrotation
                        End Site
                        {
                          OFFSET -0.0145 -0.018 0.0127
                        }
                      }
                    }
                  }
                  JOINT rMid1
                  {
                    OFFSET -5.6954 0.21 2.1184
                    CHANNELS 6 Xposition Yposition Zposition Zrotation Xrotation Yrotation
                    JOINT rMid2
                    {
                      OFFSET -3.9766 -1.54 2.3863
                      CHANNELS 6 Xposition Yposition Zposition Zrotation Xrotation Yrotation
                      JOINT rMid2_End
                      {
                        OFFSET -1.4042 -1.926 1.125
                        CHANNELS 6 Xposition Yposition Zposition Zrotation Xrotation Yrotation
                        End Site
                        {
                          OFFSET -0.014 -0.0193 0.0113
                        }
                      }
                    }
                  }
                }
                JOINT rCarpal2
                {
                  OFFSET -2.0956 0.66 -0.3894
                  CHANNELS 6 Xposition Yposition Zposition Zrotation Xrotation Yrotation
                  JOINT rRing1
                  {
                    OFFSET -5.0395 -0.09 2.4971
                    CHANNELS 6 Xposition Yposition Zposition Zrotation Xrotation Yrotation
                    JOINT rRing2
                    {
                      OFFSET -3.7921 -1.552 1.4806
                      CHANNELS 6 Xposition Yposition Zposition Zrotation Xrotation Yrotation
                      JOINT rRing2_End
                      {
                        OFFSET -1.4655 -1.808 0.9609
                        CHANNELS 6 Xposition Yposition Zposition Zrotation Xrotation Yrotation
                        End Site
                        {
                          OFFSET -0.0147 -0.0181 0.0096
                        }
                      }
                    }
                  }
                  JOINT rPinky1
                  {
                    OFFSET -4.9141 -1.269 0.3592
                    CHANNELS 6 Xposition Yposition Zposition Zrotation Xrotation Yrotation
                    JOINT rPinky2
                    {
                      OFFSET -3.1477 -1.685 0.8462
                      CHANNELS 6 Xposition Yposition Zposition Zrotation Xrotation Yrotation
                      JOINT rPinky2_End
                      {
                        OFFSET -0.8055 -1.585 0.7955
                        CHANNELS 6 Xposition Yposition Zposition Zrotation Xrotation Yrotation
                        End Site
                        {
                          OFFSET -0.0081 -0.0158 0.008
                        }
                      }
                    }
                  }
                }
              }
            }
          }
        }
      }
    }
  }
  JOINT lThigh
  {
    OFFSET 8.367 -8.2066 0.5982
    CHANNELS 6 Xposition Yposition Zposition Zrotation Xrotation Yrotation
    JOINT lShin
    {
      OFFSET 2.1923 -43.463 -0.4932
      CHANNELS 6 Xposition Yposition Zposition Zrotation Xrotation Yrotation
      JOINT lFoot
      {
        OFFSET 0.7333 -45.8593 -2.6451
        CHANNELS 6 Xposition Yposition Zposition Zrotation Xrotation Yrotation
        End Site
        {
          OFFSET 2.6618 -4.2699 12.3931
        }
      }
    }
  }
  JOINT rThigh
  {
    OFFSET -8.367 -8.2066 0.5982
    CHANNELS 6 Xposition Yposition Zposition Zrotation Xrotation Yrotation
    JOINT rShin
    {
      OFFSET -2.1923 -43.463 -0.4931
      CHANNELS 6 Xposition Yposition Zposition Zrotation Xrotation Yrotation
      JOINT rFoot
      {
        OFFSET -0.7333 -45.8593 -2.6451
        CHANNELS 6 Xposition Yposition Zposition Zrotation Xrotation Yrotation
        End Site
        {
          OFFSET -2.6618 -4.2699 12.3931
        }
      }
    }
  }
}
MOTION
Frames:	4
Frame Time:	0.0333333
0.047819 51.1632 6.95218 -7.78789e-015 -6.27197 180 6.93889e-018 -1.186 -1.5018 -0.0230864 -1.2491 -0.745854 2.77556e-017 9.964 0.2134 -0.0624612 -2.49776 -1.49274 0 13.134 -3.2573 -0.0624611 -2.49776 -1.49274 1.11022e-016 20.686 -1.6905 12.1645 42.0753 -8.22109 0 7.238 -0.1237 3.31225e-006 -30.8017 1.40889e-006 1.7069 20.075 5.0056 -25.3924 -8.7993 -2.566 13.6458 -0.047 -4.849 -46.2749 -0.424815 -57.4622 28.3255 -0.9759 2.2888 -42.4359 56.2517 18.6585 22.1583 -0.53 10.8316 -28.1292 14.7941 -5.69275 0.786 0.112 2.5817 9.54166e-015 -6.36111e-015 -0 0.3601 -0.878 4.2331 1.27222e-014 -6.36111e-015 -7.95139e-016 1.8127 -1.216 2.2227 6.36111e-015 -6.36111e-015 -3.18055e-015 0.9571 1.114 1.7695 6.36111e-015 0 7.95139e-016 4.1246 0.487 4.1451 3.18055e-015 -3.18055e-015 5.56597e-015 3.4052 -1.454 2.7682 3.18055e-015 0 7.95139e-015 1.4531 -1.795 1.2713 9.54166e-015 -6.36111e-015 -3.97569e-015 5.6954 0.21 2.1184 3.18055e-015 -3.18055e-015 5.56597e-015 3.9766 -1.54 2.3863 3.18055e-015 0 7.95139e-015 1.4042 -1.926 1.125 9.54166e-015 -6.36111e-015 -3.97569e-015 2.0956 0.66 -0.3894 6.36111e-015 0 7.95139e-016 5.0395 -0.09 2.4971 3.18055e-015 -3.18055e-015 5.56597e-015 3.7921 -1.552 1.4806 3.18055e-015 0 7.95139e-015 1.4655 -1.808 0.9609 9.54166e-015 -6.36111e-015 -3.97569e-015 4.9141 -1.269 0.3591 3.18055e-015 -3.18055e-015 5.56597e-015 3.1477 -1.685 0.8462 3.18055e-015 0 7.95139e-015 0.8055 -1.585 0.7955 9.54166e-015 -6.36111e-015 -3.97569e-015 -1.7069 20.075 5.0056 -8.86083 -9.39004 -5.48588 -13.6458 -0.047 -4.849 51.2051 6.8033 81.2011 -28.3255 -0.9759 2.2888 59.0815 8.40194 28.7442 -22.1583 -0.53 10.8316 25.078 -2.46391 18.5462 -0.786 0.112 2.5817 -1.54842e-006 9.46596e-006 1.88798e-006 -0.3601 -0.878 4.2331 -3.38776e-007 -2.77596e-008 2.57719e-007 -1.8127 -1.216 2.2227 8.54214e-007 6.08348e-008 4.19834e-007 -0.9571 1.114 1.7695 -9.37955e-032 -3.18055e-015 -1.68967e-015 -4.1246 0.487 4.1451 -1.54842e-006 9.46596e-006 1.88798e-006 -3.4052 -1.454 2.7682 -3.38776e-007 -2.77596e-008 2.57719e-007 -1.4531 -1.795 1.2713 8.54214e-007 6.08348e-008 4.19834e-007 -5.6954 0.21 2.1184 -1.54842e-006 9.46596e-006 1.88798e-006 -3.9766 -1.54 2.3863 -3.38776e-007 -2.77596e-008 2.57719e-007 -1.4042 -1.926 1.125 8.54214e-007 6.08348e-008 4.19834e-007 -2.0956 0.66 -0.3894 -9.37955e-032 -3.18055e-015 -1.68967e-015 -5.0395 -0.09 2.4971 -1.54842e-006 9.46596e-006 1.88798e-006 -3.7921 -1.552 1.4806 -3.38776e-007 -2.77596e-008 2.57719e-007 -1.4655 -1.808 0.9609 8.54214e-007 6.08348e-008 4.19834e-007 -4.9141 -1.269 0.3592 -1.54842e-006 9.46596e-006 1.88798e-006 -3.1477 -1.685 0.8462 -3.38776e-007 -2.77596e-008 2.57719e-007 -0.8055 -1.585 0.7955 8.54214e-007 6.08348e-008 4.19834e-007 8.367 -8.2066 0.5982 4.51972 -16.5643 2.91389 2.1923 -43.463 -0.4932 -4.8395 20.0754 -3.16983 0.7333 -45.8593 -2.6451 -2.48433 -9.25907 3.84883 -8.367 -8.2066 0.5982 -4.01528 -18.8726 -3.35392 -2.1923 -43.463 -0.4931 5.49859 24.5784 2.95113 -0.7333 -45.8593 -2.6451 1.24498 -11.8221 -3.59916 
0.0476933 51.1476 7.02273 -7.83099e-015 -6.61949 180 0 -1.186 -1.5018 -0.0254038 -1.31863 -0.743487 0 9.964 0.2134 -0.0679532 -2.63684 -1.48815 0 13.134 -3.2573 -0.0679533 -2.63684 -1.48815 -1.11022e-016 20.686 -1.6905 12.0992 41.7357 -8.12302 -1.77636e-015 7.238 -0.1237 -1.2304e-006 -29.2716 -3.55211e-006 1.7069 20.075 5.0056 -25.3183 -8.89775 -2.33008 13.6458 -0.047 -4.849 -46.3477 -0.318585 -57.5989 28.3255 -0.9759 2.2888 -42.4359 56.2517 18.6585 22.1583 -0.53 10.8316 -28.1292 14.7941 -5.69275 0.786 0.112 2.5817 1.5219e-006 1.96424e-006 1.30192e-006 0.3601 -0.878 4.2331 -8.82781e-032 -3.18055e-015 -1.59028e-015 1.8127 -1.216 2.2227 3.18055e-015 0 -3.97569e-015 0.9571 1.114 1.7695 -3.18055e-015 0 3.18055e-015 4.1246 0.487 4.1451 1.5219e-006 1.96424e-006 1.30192e-006 3.4052 -1.454 2.7682 -9.54166e-015 -3.18055e-015 -3.18055e-015 1.4531 -1.795 1.2713 -3.53113e-031 -3.18055e-015 -6.36111e-015 5.6954 0.21 2.1184 1.5219e-006 1.96424e-006 1.30192e-006 3.9766 -1.54 2.3863 -9.54166e-015 -3.18055e-015 -3.18055e-015 1.4042 -1.926 1.125 -3.53113e-031 -3.18055e-015 -6.36111e-015 2.0956 0.66 -0.3894 -3.18055e-015 0 3.18055e-015 5.0395 -0.09 2.4971 1.5219e-006 1.96424e-006 1.30192e-006 3.7921 -1.552 1.4806 -9.54166e-015 -3.18055e-015 -3.18055e-015 1.4655 -1.808 0.9609 -3.53113e-031 -3.18055e-015 -6.36111e-015 4.9141 -1.269 0.3591 1.5219e-006 1.96424e-006 1.30192e-006 3.1477 -1.685 0.8462 -9.54166e-015 -3.18055e-015 -3.18055e-015 0.8055 -1.585 0.7955 -3.53113e-031 -3.18055e-015 -6.36111e-015 -1.7069 20.075 5.0056 -8.88718 -9.54325 -6.08213 -13.6458 -0.047 -4.849 51.2051 6.80328 81.201 -28.3255 -0.9759 2.2888 59.0815 8.40197 28.7442 -22.1583 -0.53 10.8316 26.3416 -2.02981 18.4037 -0.786 0.112 2.5817 -3.97569e-016 0 2.38542e-015 -0.3601 -0.878 4.2331 -6.77963e-007 -5.37784e-008 5.14661e-007 -1.8127 -1.216 2.2227 7.95139e-016 -6.36111e-015 -4.96962e-016 -0.9571 1.114 1.7695 -3.97569e-016 0 6.95746e-016 -4.1246 0.487 4.1451 -3.97569e-016 0 1.09332e-014 -3.4052 -1.454 2.7682 -6.77963e-007 -5.37784e-008 5.14661e-007 -1.4531 -1.795 1.2713 -1.76556e-031 -6.36111e-015 -1.59028e-015 -5.6954 0.21 2.1184 -3.97569e-016 0 1.09332e-014 -3.9766 -1.54 2.3863 -6.77963e-007 -5.37784e-008 5.14661e-007 -1.4042 -1.926 1.125 -1.76556e-031 -6.36111e-015 -1.59028e-015 -2.0956 0.66 -0.3894 -3.97569e-016 0 6.95746e-016 -5.0395 -0.09 2.4971 -3.97569e-016 0 1.09332e-014 -3.7921 -1.552 1.4806 -6.77963e-007 -5.37784e-008 5.14661e-007 -1.4655 -1.808 0.9609 -1.76556e-031 -6.36111e-015 -1.59028e-015 -4.9141 -1.269 0.3592 -3.97569e-016 0 1.09332e-014 -3.1477 -1.685 0.8462 -6.77963e-007 -5.37784e-008 5.14661e-007 -0.8055 -1.585 0.7955 -1.76556e-031 -6.36111e-015 -1.59028e-015 8.367 -8.2066 0.5982 4.4596 -17.0399 2.49794 2.1923 -43.463 -0.4932 -4.83829 20.0691 -3.17103 0.7333 -45.8593 -2.6451 -2.47726 -9.28841 4.28474 -8.367 -8.2066 0.5982 -3.93935 -19.3411 -2.92789 -2.1923 -43.463 -0.4931 5.49709 24.5722 2.9518 -0.7333 -45.8593 -2.6451 1.23173 -11.8316 -4.0395 
0.0475734 51.1333 7.08576 -7.86962e-015 -6.93056 180 0 -1.186 -1.5018 -0.0274731 -1.38078 -0.741376 0 9.964 0.2134 -0.0728534 -2.76111 -1.48406 0 13.134 -3.2573 -0.0728534 -2.7611 -1.48406 0 20.686 -1.6905 12.0415 41.4317 -8.03608 1.77636e-015 7.238 -0.1237 -3.41978e-006 -27.9008 -6.99714e-007 1.7069 20.075 5.0056 -25.2518 -8.98537 -2.11913 13.6458 -0.047 -4.849 -46.4125 -0.223507 -57.7208 28.3255 -0.9759 2.2888 -42.4359 56.2517 18.6585 22.1583 -0.53 10.8316 -28.1292 14.7941 -5.69273 0.786 0.112 2.5817 -6.36111e-015 0 -4.77083e-015 0.3601 -0.878 4.2331 -3.18055e-015 6.36111e-015 -3.97569e-015 1.8127 -1.216 2.2227 -6.36111e-015 0 1.59028e-015 0.9571 1.114 1.7695 -6.36111e-015 0 -4.77083e-015 4.1246 0.487 4.1451 3.18055e-015 6.36111e-015 -1.59028e-015 3.4052 -1.454 2.7682 0 0 -0 1.4531 -1.795 1.2713 0 0 -0 5.6954 0.21 2.1184 3.18055e-015 6.36111e-015 -1.59028e-015 3.9766 -1.54 2.3863 0 0 -0 1.4042 -1.926 1.125 0 0 -0 2.0956 0.66 -0.3894 -6.36111e-015 0 -4.77083e-015 5.0395 -0.09 2.4971 3.18055e-015 6.36111e-015 -1.59028e-015 3.7921 -1.552 1.4806 0 0 -0 1.4655 -1.808 0.9609 0 0 -0 4.9141 -1.269 0.3591 3.18055e-015 6.36111e-015 -1.59028e-015 3.1477 -1.685 0.8462 0 0 -0 0.8055 -1.585 0.7955 0 0 -0 -1.7069 20.075 5.0056 -8.91198 -9.67995 -6.61516 -13.6458 -0.047 -4.849 51.2052 6.80329 81.201 -28.3255 -0.9759 2.2888 59.0815 8.40197 28.7443 -22.1583 -0.53 10.8316 27.4735 -1.64384 18.2681 -0.786 0.112 2.5817 -0 0 2.08724e-015 -0.3601 -0.878 4.2331 3.97569e-016 3.18055e-015 -8.94531e-016 -1.8127 -1.216 2.2227 -0 0 2.5842e-015 -0.9571 1.114 1.7695 -0 0 2.98177e-016 -4.1246 0.487 4.1451 -3.97569e-016 3.18055e-015 5.46658e-015 -3.4052 -1.454 2.7682 -0 0 2.18663e-015 -1.4531 -1.795 1.2713 -3.97569e-016 3.18055e-015 7.95139e-016 -5.6954 0.21 2.1184 -3.97569e-016 3.18055e-015 5.46658e-015 -3.9766 -1.54 2.3863 -0 0 2.18663e-015 -1.4042 -1.926 1.125 -3.97569e-016 3.18055e-015 7.95139e-016 -2.0956 0.66 -0.3894 -0 0 2.98177e-016 -5.0395 -0.09 2.4971 -3.97569e-016 3.18055e-015 5.46658e-015 -3.7921 -1.552 1.4806 -0 0 2.18663e-015 -1.4655 -1.808 0.9609 -3.97569e-016 3.18055e-015 7.95139e-016 -4.9141 -1.269 0.3592 -3.97569e-016 3.18055e-015 5.46658e-015 -3.1477 -1.685 0.8462 -0 0 2.18663e-015 -0.8055 -1.585 0.7955 -3.97569e-016 3.18055e-015 7.95139e-016 8.367 -8.2066 0.5982 4.4033 -17.4644 2.12499 2.1923 -43.463 -0.4932 -4.83747 20.0639 -3.17213 0.7333 -45.8593 -2.6451 -2.47082 -9.31511 4.67419 -8.367 -8.2066 0.5982 -3.86855 -19.7604 -2.54552 -2.1923 -43.463 -0.4931 5.49576 24.5679 2.95221 -0.7333 -45.8593 -2.6451 1.21994 -11.8403 -4.43289 
0.0474458 51.1188 7.14893 -7.9083e-015 -7.24155 180 0 -1.186 -1.5018 -0.0295407 -1.44295 -0.739267 0 9.964 0.2134 -0.0777461 -2.88539 -1.47999 1.11022e-016 13.134 -3.2573 -0.0777461 -2.88539 -1.47999 2.22045e-016 20.686 -1.6905 11.984 41.1261 -7.94948 0 7.238 -0.1237 9.24509e-007 -26.5266 4.63951e-007 1.7069 20.075 5.0056 -25.185 -9.07273 -1.90798 13.6458 -0.047 -4.849 -46.4771 -0.128261 -57.8426 28.3255 -0.9759 2.2888 -42.4359 56.2517 18.6585 22.1583 -0.53 10.8316 -28.1292 14.7941 -5.69274 0.786 0.112 2.5817 4.41391e-031 -3.18055e-015 7.95139e-015 0.3601 -0.878 4.2331 -3.18055e-015 -6.36111e-015 4.77083e-015 1.8127 -1.216 2.2227 -0 0 1.59028e-015 0.9571 1.114 1.7695 2.64834e-031 -3.18055e-015 4.77083e-015 4.1246 0.487 4.1451 3.18055e-015 -3.18055e-015 7.95139e-015 3.4052 -1.454 2.7682 3.18055e-015 0 1.59028e-015 1.4531 -1.795 1.2713 -0 0 1.59028e-015 5.6954 0.21 2.1184 3.18055e-015 -3.18055e-015 7.95139e-015 3.9766 -1.54 2.3863 3.18055e-015 0 1.59028e-015 1.4042 -1.926 1.125 -0 0 1.59028e-015 2.0956 0.66 -0.3894 2.64834e-031 -3.18055e-015 4.77083e-015 5.0395 -0.09 2.4971 3.18055e-015 -3.18055e-015 7.95139e-015 3.7921 -1.552 1.4806 3.18055e-015 0 1.59028e-015 1.4655 -1.808 0.9609 -0 0 1.59028e-015 4.9141 -1.269 0.3591 3.18055e-015 -3.18055e-015 7.95139e-015 3.1477 -1.685 0.8462 3.18055e-015 0 1.59028e-015 0.8055 -1.585 0.7955 -0 0 1.59028e-015 -1.7069 20.075 5.0056 -8.93809 -9.81643 -7.14864 -13.6458 -0.047 -4.849 51.2052 6.8033 81.201 -28.3255 -0.9759 2.2888 59.0815 8.40197 28.7442 -22.1583 -0.53 10.8316 28.6082 -1.25986 18.1246 -0.786 0.112 2.5817 -5.13271e-007 -4.98586e-008 -6.78547e-007 -0.3601 -0.878 4.2331 6.80566e-007 1.39658e-006 8.09291e-007 -1.8127 -1.216 2.2227 -2.27125e-006 2.60903e-006 -5.68998e-007 -0.9571 1.114 1.7695 3.97569e-016 0 -1.19271e-015 -4.1246 0.487 4.1451 -5.13271e-007 -4.98586e-008 -6.78547e-007 -3.4052 -1.454 2.7682 6.80566e-007 1.39658e-006 8.09291e-007 -1.4531 -1.795 1.2713 -2.27125e-006 2.60903e-006 -5.68998e-007 -5.6954 0.21 2.1184 -5.13271e-007 -4.98586e-008 -6.78547e-007 -3.9766 -1.54 2.3863 6.80566e-007 1.39658e-006 8.09291e-007 -1.4042 -1.926 1.125 -2.27125e-006 2.60903e-006 -5.68998e-007 -2.0956 0.66 -0.3894 3.97569e-016 0 -1.19271e-015 -5.0395 -0.09 2.4971 -5.13271e-007 -4.98586e-008 -6.78547e-007 -3.7921 -1.552 1.4806 6.80566e-007 1.39658e-006 8.09291e-007 -1.4655 -1.808 0.9609 -2.27125e-006 2.60903e-006 -5.68998e-007 -4.9141 -1.269 0.3592 -5.13271e-007 -4.98586e-008 -6.78547e-007 -3.1477 -1.685 0.8462 6.80566e-007 1.39658e-006 8.09291e-007 -0.8055 -1.585 0.7955 -2.27125e-006 2.60903e-006 -5.68998e-007 8.367 -8.2066 0.5982 4.34402 -17.8897 1.7505 2.1923 -43.463 -0.4932 -4.83653 20.0595 -3.17314 0.7333 -45.8593 -2.6451 -2.46437 -9.34165 5.06375 -8.367 -8.2066 0.5982 -3.79488 -20.1792 -2.16151 -2.1923 -43.463 -0.4931 5.49458 24.5636 2.95266 -0.7333 -45.8593 -2.6451 1.20821 -11.849 -4.82637 
